<svg xmlns="http://www.w3.org/2000/svg" viewBox="0 0 622.55 844"><defs><style>.cls-1{fill:#fff;}</style></defs><g id="Capa_2" data-name="Capa 2"><g id="Capa_48" data-name="Capa 48"><path class="cls-1" d="M219.55,166.8c-20.64,0-37.23-14.28-37.23-31.67s16.79-31.67,37.23-31.67c20.64,0,37.23,14.28,37.23,31.67S240.19,166.8,219.55,166.8Zm0,20.32c74.46,0,135,51.47,135,114.81,0,34.95-18.42,66.1-47.35,87.28a113.77,113.77,0,0,0-44.32-8.61c-3.44,0-7.08.17-9.91.34a79.47,79.47,0,0,0-55,29.1c-1.22,1.55-2.43,3.09-3.44,4.64-62.53-10-109.88-56.63-109.88-112.75C84.58,238.59,144.88,187.12,219.55,187.12ZM173.21,326.89c.61,9.81,4.25,17.56,11.33,22.9,7.49,5.85,17,9.29,28.13,10.33v12.73a3.38,3.38,0,0,0,3.64,3.1h13.36a3.38,3.38,0,0,0,3.64-3.1V359.77c9.11-1.38,16.39-4.47,22.06-9.12,6.67-5.51,10.11-12.74,10.11-21.86,0-9.47-3.23-16.87-9.91-21.87-6.68-5.16-17-10.15-31.16-15.32-6.07-2.23-10.32-4.47-12.55-6.71a12,12,0,0,1-3.44-8.78,12.87,12.87,0,0,1,3-8.78c2-2.24,5.26-3.44,9.71-3.44A13.63,13.63,0,0,1,231.49,268c2,2.24,3.24,5.34,3.64,9.47a3.88,3.88,0,0,0,4.25,3.1l21.85-.35c2.43,0,4.46-1.72,4.25-3.78a30.81,30.81,0,0,0-9.3-20.49c-5.87-5.68-13.56-9.47-23.07-11V231a3.39,3.39,0,0,0-3.64-3.1H216.11a3.39,3.39,0,0,0-3.64,3.1v13.6c-10.12,1.21-18.42,4.48-24.69,9.64-6.88,5.68-10.52,12.91-10.52,21.69,0,9.64,3.24,17,9.91,22,6.48,5,17,10,31.37,14.81,5.87,2.24,10.12,4.47,12.34,6.71s3.44,5.51,3.44,9.47a11.58,11.58,0,0,1-3.44,8.61c-2.22,2.23-5.66,3.27-9.91,3.27-5.26,0-9.51-1.38-12.75-4.31-2.63-2.24-4.25-5.85-4.86-10.67-.2-1.89-2.22-3.27-4.25-3.27l-21.85.34A4.22,4.22,0,0,0,173.21,326.89ZM597.74,469.94c-11.13-7.4-127.48-117.23-158.64-132.72V52.33C439.1,23.41,411.58,0,377.59,0H61.51C27.52,0,0,23.41,0,52.33V551c0,28.92,27.52,52.33,61.51,52.33h137.6l-5.66-41c-1.82-1.38-3-2.24-4.86-3.62h-60.7a47.2,47.2,0,0,0,1.41-20c-3.24-21.69-22.66-39.77-47.55-44.59a72.21,72.21,0,0,0-29.14.17V105.87a69.35,69.35,0,0,0,33.19-2.59,62.3,62.3,0,0,0,29.94-20.83c10.32-13.42,11.94-26.33,9.51-38h188.8c-2.43,11.54-.81,24.1,9.1,37.53a59.89,59.89,0,0,0,30,21.17,70.85,70.85,0,0,0,33.59,2.58V484.57h0V593.36c-21.45-13.42-45.53-55.42-45.53-55.42s-11.73-111.89-78.31-111.89c-1.82,0-3.44,0-5.26.17,0,0-50.38,3.61-8.7,126.35l18.62,136.16s20.84,74,78.31,125.15V829.2c0,8.09,7.69,14.8,17.4,14.8H550.59c8.91,0,16.19-5.68,17.2-13.08,6.68-52.51,32.18-246,47.35-279.21,2.84-6.37,5.47-12.74,6.48-19.45C624.05,515,623.44,486.81,597.74,469.94Z"/></g></g></svg>