<svg xmlns="http://www.w3.org/2000/svg" viewBox="0 0 841.44 841.44"><defs><style>.cls-1{fill:#fff;}</style></defs><g id="Capa_2" data-name="Capa 2"><g id="Capa_43" data-name="Capa 43"><path class="cls-1" d="M415,554.59c-53.54,0-78.4-34.43-88-45.9l-1.92-3.82c-7.65-7.65-5.73-21,1.92-28.69s21-5.74,26.77,1.91L355.7,480c7.65,9.57,22.95,28.69,59.28,28.69,19.13,0,34.43-15.3,38.25-34.42,3.83-26.78-19.12-49.72-61.19-65-51.64-17.21-63.11-61.2-57.38-91.8,5.74-38.24,40.16-70.75,80.32-70.75,51.64,0,74.59,47.8,74.59,49.72,3.82,9.56,0,22.95-9.57,26.77s-21-1.91-24.86-11.47c0-1.92-13.38-26.78-40.16-26.78-22.94,0-38.24,21-42.07,38.25-3.82,21,9.56,38.25,32.51,47.81,91.8,32.51,89.88,93.71,88,110.92C485.74,522.08,453.23,554.59,415,554.59Z"/><path class="cls-1" d="M411.16,592.83c-11.47,0-19.12-7.64-19.12-19.12V229.48c0-11.47,7.65-19.12,19.12-19.12s19.12,7.65,19.12,19.12V573.71C430.28,585.19,422.63,592.83,411.16,592.83Z"/><path class="cls-1" d="M420.72,841.44C189.32,841.44,0,652.12,0,420.72S189.32,0,420.72,0,841.44,189.32,841.44,420.72c0,21-1.91,44-5.73,70.76a19.5,19.5,0,0,1-38.25-7.65q5.73-34.43,5.74-63.11c0-210.36-172.12-382.47-382.48-382.47S38.25,210.36,38.25,420.72,210.36,803.2,420.72,803.2q28.69,0,63.11-5.74a19.84,19.84,0,0,1,22.95,15.3c1.91,9.56-5.74,21-15.3,23C464.71,839.53,441.76,841.44,420.72,841.44ZM679.39,557a16.63,16.63,0,0,1,6.65,6.65l92.29,92.29a18.49,18.49,0,0,1,0,26.78c-3.82,3.82-7.65,5.73-13.38,5.73s-9.56-1.91-13.39-5.73l-63.11-63.11V803.2c0,11.47-7.65,19.12-19.12,19.12s-19.12-7.65-19.12-19.12V619.61L587.1,682.72a18.94,18.94,0,0,1-26.78-26.78l92.3-92.29a16.56,16.56,0,0,1,6.65-6.65l10.06-10.06ZM420.72,757.3c-185.5,0-336.58-151.08-336.58-336.58S235.22,84.14,420.72,84.14,757.3,235.22,757.3,420.72c0,11.48-7.65,19.12-19.13,19.12s-19.12-7.64-19.12-19.12c0-164.46-133.86-298.33-298.33-298.33S122.39,256.26,122.39,420.72,256.26,719.05,420.72,719.05c11.48,0,19.12,7.65,19.12,19.12S432.2,757.3,420.72,757.3Z"/></g></g></svg>