<svg xmlns="http://www.w3.org/2000/svg" viewBox="0 0 966 845.74"><defs><style>.cls-1{fill:#fff;}</style></defs><g id="Capa_2" data-name="Capa 2"><g id="Capa_41" data-name="Capa 41"><path class="cls-1" d="M926.69,28.5l-1.17-.93C903.19,9.79,874.24,0,844,0c-33.89,0-66.43,12.51-89.28,34.31l-432,412.29a35.79,35.79,0,0,0-8.77,13l-50.8,132.75c-5.87,15.35-2.92,32.32,7.89,45.4s28.45,21.06,47,21.06h0a65,65,0,0,0,23.25-4.27l147.09-56.09a42.14,42.14,0,0,0,14.08-8.79l432-412.29C979.38,134.49,975.91,67.7,926.69,28.5ZM360.47,567.85,390.28,490l2.52-2.4,56.49,45-2.51,2.4ZM872.83,128.34,505.56,478.84l-56.5-45L816.33,83.36A39.73,39.73,0,0,1,844,72.72a40.61,40.61,0,0,1,25.26,8.56l1.16.93C885.68,94.35,886.76,115.05,872.83,128.34Z"/><path class="cls-1" d="M842.88,335.47c-23,0-41.72,16.28-41.72,36.36V680.54c0,51-47.59,92.47-106.08,92.47H189.51C131,773,83.43,731.53,83.43,680.54V243.41c0-51,47.59-92.47,106.08-92.47H555.44c23,0,41.72-16.28,41.72-36.36s-18.68-36.36-41.72-36.36H189.51C85,78.22,0,152.33,0,243.42V680.54c0,91.09,85,165.2,189.51,165.2H695.08c104.49,0,189.51-74.11,189.51-165.2V371.83C884.59,351.75,865.91,335.47,842.88,335.47Z"/></g></g></svg>