<svg xmlns="http://www.w3.org/2000/svg" viewBox="0 0 841.44 841.44"><defs><style>.cls-1{fill:#fff;}</style></defs><g id="Capa_2" data-name="Capa 2"><g id="Capa_42" data-name="Capa 42"><path class="cls-1" d="M415,554.59c-53.54,0-78.4-34.43-88-45.9l-1.92-3.82c-7.65-7.65-5.73-21,1.92-28.69s21-5.74,26.77,1.91L355.7,480c7.65,9.57,22.95,28.69,59.28,28.69,19.13,0,34.43-15.3,38.25-34.42,3.83-26.78-19.12-49.72-61.19-65-51.64-17.21-63.11-59.29-57.38-88,7.65-38.25,40.16-66.93,80.32-66.93,51.64,0,74.59,44,74.59,45.89,3.82,9.56,0,21-9.57,24.86s-21,0-24.86-9.56c0-1.91-13.38-23-40.16-24.86-22.94,0-40.16,17.21-42.07,34.42-3.82,21,9.56,36.34,32.51,45.9,91.8,32.51,89.88,93.71,88,110.92C485.74,522.08,453.23,554.59,415,554.59Z"/><path class="cls-1" d="M411.16,595.7c-11.47,0-19.12-7.65-19.12-19.12V232.35c0-11.47,7.65-19.12,19.12-19.12s19.12,7.65,19.12,19.12V576.58C430.28,588.05,422.63,595.7,411.16,595.7Z"/><path class="cls-1" d="M420.72,841.44C189.32,841.44,0,652.12,0,420.72S189.32,0,420.72,0,841.44,189.32,841.44,420.72c0,21-1.91,44-5.73,70.76a19.85,19.85,0,0,1-23,15.3c-11.48-1.91-17.21-11.48-15.3-22.95q5.73-34.43,5.74-63.11c0-210.36-172.12-382.47-382.48-382.47S38.25,210.36,38.25,420.72,210.36,803.2,420.72,803.2q28.69,0,63.11-5.74c9.56-1.91,21,5.74,22.95,15.3s-5.74,21-15.3,23C464.71,839.53,441.76,841.44,420.72,841.44ZM650.21,719.05V554.59c0-11.48,7.65-19.13,19.12-19.13s19.12,7.65,19.12,19.13V719.05l63.11-63.11a18.93,18.93,0,0,1,26.77,26.78L686,775a16.63,16.63,0,0,1-6.65,6.65l-10.06,10.06-10.06-10.06a16.56,16.56,0,0,1-6.65-6.65l-92.3-92.29a18.94,18.94,0,0,1,26.78-26.78ZM420.72,757.3c-185.5,0-336.58-151.08-336.58-336.58S235.22,84.14,420.72,84.14,757.3,235.22,757.3,420.72c0,11.48-7.65,19.12-19.13,19.12s-19.12-7.64-19.12-19.12c0-164.46-133.86-298.33-298.33-298.33S122.39,256.26,122.39,420.72,256.26,719.05,420.72,719.05c11.48,0,19.12,7.65,19.12,19.12S432.2,757.3,420.72,757.3Z"/></g></g></svg>