<svg xmlns="http://www.w3.org/2000/svg" viewBox="0 0 966 844"><defs><style>.cls-1{fill:#fff;}</style></defs><g id="Capa_2" data-name="Capa 2"><g id="Capa_40" data-name="Capa 40"><path class="cls-1" d="M191.16,618.81H146.81c-18.35,0-32.64,12.23-32.64,27v18.86H99.41C81,664.71,68.49,653.79,68.49,639V610.72c0-14.84,12.51-28.51,30.92-28.51h70.25a230.87,230.87,0,0,1-26.47-107.76c0-159.28,159.38-287.87,357.53-287.87,58.65,0,115.73,11.78,161.41,31.79V79.71C662.13,36.44,621,0,567.06,0H95C41.1,0,0,36.44,0,79.71V642.55c0,43.32,41.1,77.15,95,77.15h19.17v42.73c0,4.87,2.88,9.3,8.09,11.67a19.94,19.94,0,0,0,16.59-.06l78.51-36.73L295.9,774a18.74,18.74,0,0,0,16.06.06,12.54,12.54,0,0,0,7.69-11.67V724.07C268.27,698.63,222.37,664.69,191.16,618.81Z"/><path class="cls-1" d="M476.38,564.23c-80.21-11.7-100.31-73.85-101.17-76.75-3.95-13.27-20.43-21.42-37.08-18.35s-26.93,16.43-23,29.75c1.13,3.92,29.45,96.57,150.26,114.15a30,30,0,0,0,5.54.46c14.66,0,27.69-8.4,30.41-20.44C504.34,579.57,493.13,566.63,476.38,564.23Z"/><path class="cls-1" d="M951.5,727l-118-94.68a50.56,50.56,0,0,0-23-10.1,54.83,54.83,0,0,0-9.66-.85c-12.3,0-24.14,3.89-32.77,11L736,606.51c85.51-94,75.43-227-30.19-311.9C649.29,249.13,574,224.12,494,224.12s-155.23,25-211.85,70.49S194.41,400.5,194.41,464.76s31.14,124.67,87.73,170.12S414,705.37,494,705.37c64.32,0,125.65-16.15,176.53-46.14L702.63,685V685c-12,9.51-16,23.12-12.11,35.35a36.75,36.75,0,0,0,12.11,17.21l117.91,94.73c9.26,7.46,21.83,11.67,34.93,11.67s25.71-4.13,35.06-11.67l61.17-49.15C970.8,767.62,970.8,742.5,951.5,727ZM640.27,582.34C601.16,613.67,549.19,631,493.93,631s-107.24-17.29-146.28-48.62c-39.08-31.51-60.6-73.15-60.6-117.5s21.52-86.1,60.6-117.56,91.05-48.65,146.28-48.65S601.16,316,640.27,347.28C720.94,412.12,720.94,517.61,640.27,582.34Z"/><ellipse class="cls-1" cx="351.6" cy="418.83" rx="30.25" ry="24.3"/></g></g></svg>